<?xml version="1.0" standalone="no"?>
<!DOCTYPE svg PUBLIC "-//W3C//DTD SVG 1.1//EN" "http://www.w3.org/Graphics/SVG/1.1/DTD/svg11.dtd" >
<svg xmlns="http://www.w3.org/2000/svg">
<metadata>Generated by IcoMoon</metadata>
<defs>
<font id="icomoon" horiz-adv-x="1024">
<font-face units-per-em="1024" ascent="960" descent="-64" />
<missing-glyph horiz-adv-x="1024" />
<glyph unicode="&#x20;" horiz-adv-x="512" d="" />
<glyph unicode="&#xe900;" glyph-name="AWB" d="M198.979 738.385v-571.904h-39.128v571.904zM878.484 738.385v-571.904h-39.155v571.904zM369.044 738.385v-571.904h-39.155v571.904zM736.472 738.385v-571.904h-39.155v571.904zM668.699 738.385v-571.904h-39.155v571.904zM566.272 738.385v-571.904h-107.251v571.904zM307.604 738.385v-571.904h-39.155v571.904zM953.883 79.064h-883.766c-38.023 0-69.012 30.936-69.012 69.012v625.448c0 38.077 30.963 69.012 69.012 69.012h883.793c38.050 0 69.012-30.936 69.012-69.012v-625.475c-0.027-38.050-30.963-68.985-69.039-68.985zM70.117 814.969c-22.824 0-41.418-18.567-41.418-41.418v-625.475c0-22.851 18.594-41.364 41.418-41.364h883.793c22.851 0 41.418 18.54 41.418 41.364v625.448c0 22.851-18.567 41.418-41.418 41.418h-883.793z" />
<glyph unicode="&#xe901;" glyph-name="AWB2, 2" d="M699.365 961.59h-521.243c-68.5 0-111.993-41.095-111.993-105.041v-780.746c0-63.892 55.565-115.793 124.066-115.793h666.004c68.527 0 101.672 52.413 101.672 116.305v613.484l-258.506 271.791zM674.951 881.718l193.94-203.426h-155.163c-34.25 0-38.777 18.324-38.777 50.257v153.169zM891.796 64.862c0-31.96-4.473-38.777-38.75-38.777h-682.092c-34.25 0-38.777 6.845-38.777 38.777 0 0 0 739.894 0 791.525 0 32.013 4.5 38.75 38.777 38.75h438.003v-205.339c0-63.919 9-77.555 77.528-77.555h205.312c0-232.771 0-547.382 0-547.382zM713.836 263.33h-403.672c-17.516 0-22.905-6.171-22.905-25.843v-16.627c0-19.672 5.389-25.896 22.905-25.896h403.672c17.462 0 22.905 6.198 22.905 25.896v16.627c0 19.672-5.416 25.843-22.905 25.843zM287.259 431.347v-16.627c0-19.699 5.201-25.923 22.151-25.923h405.181c16.95 0 22.151 6.198 22.151 25.923v16.627c0 19.645-5.201 25.816-22.151 25.816h-405.181c-12.099 0-22.151-6.144-22.151-25.816zM309.895 582.656h198.872c17.327 0 22.636 6.198 22.636 25.896v16.627c0 19.672-5.309 25.816-22.636 25.816h-198.872c-17.3 0-22.609-6.144-22.609-25.816v-16.627c-0.027-19.672 5.282-25.896 22.609-25.896z" />
<glyph unicode="&#xe902;" glyph-name="cargo" d="M998.451 752.282l-486.451 220.518-486.451-220.518c-16.256-8.73-25.549-24.038-25.549-41.472v-498.893c0-17.485 9.293-32.742 25.549-41.498l486.451-221.619 486.451 220.518c16.256 8.73 25.549 24.038 25.549 41.472v498.918c0 17.459-9.293 33.843-25.549 42.573zM512 561.254l-213.632 89.498 401.69 176.845 214.784-97.152-402.842-169.19zM632.73 857.088l-403.994-177.971-119.578 50.227 402.842 183.398 120.73-55.654zM58.086 691.149l141.594-58.957v-222.694c0-15.283 12.774-27.29 29.056-27.29 16.256 0 29.005 12.032 29.005 27.29v197.606l225.254-93.901v-490.163l-424.909 193.203v474.906zM541.030 23.014v490.189l424.909 177.946v-474.906l-424.909-193.229z" />
<glyph unicode="&#xe903;" glyph-name="carrier" d="M801.678 74.183c-5.945-22.955-32.967-68.494-60.018-68.494h-701.639c-27.079 0-37.888 43.292-24.064 63.545l563.2 832.085c13.824 20.281 47.218 43.036 74.297 43.036h321.052c27.051 0 44.373-24.974 38.4-47.986l-211.228-822.187z" />
<glyph unicode="&#xe904;" d="M848.614 793.6c19.917 0 34.586-4.275 30.182-21.453l-154.522-599.859c-4.403-17.152-23.296-69.888-43.213-69.888h-516.48c-19.917 0-27.878 51.098-17.69 66.227l414.566 607.232c10.138 15.13 34.739 17.741 54.63 17.741h228.71zM852.454 896h-236.339c-64.589 0-111.616-21.248-139.699-63.104l-414.106-606.541c-32.461-48.23-25.805-117.146-2.662-160.589 21.914-41.165 61.133-65.766 104.934-65.766h516.48c98.15 0 134.554 112.461 143.386 146.918l155.392 599.526c9.472 36.941 2.202 74.24-19.84 102.63-24.192 31.13-60.339 46.925-107.546 46.925v0z" />
<glyph unicode="&#xe905;" d="M588.8 614.4h128v-128h-128v128z" />
<glyph unicode="&#xe906;" glyph-name="flight" d="M930.253 559.027h-268.595l17.638-10.112-250.138 423.885h-136.806l7.834-26.522 122.086-413.773 19.686 26.522h-268.646l16.717-8.678-79.36 112.154h-110.694l7.040-26.086 48.819-181.018v10.829l-55.859-207.104h110.669l6.118 8.678 73.242 103.45-16.691-8.678h268.595l-19.686 26.522-129.894-440.294h136.806l250.138 423.885-17.638-10.112h268.595c50.637 0 93.773 45.67 93.773 98.227s-43.136 98.227-93.747 98.227v0zM930.253 517.76c27.494 0 52.762-26.752 52.762-56.96s-25.242-56.96-52.762-56.96h-280.294l-5.939-10.112-244.173-413.747 17.638 10.112h-97.638l19.686-26.522 129.869 440.269h-306.688l-6.118-8.653-73.242-103.45 16.691 8.678h-73.216l19.789-26.086 50.278 186.47-1.459 5.427-48.819 181.018-19.789-26.061h73.216l-16.691 8.653 79.36-112.102h306.688l-7.834 26.522-122.061 413.773-19.686-26.522h97.638l-17.638 10.112 250.112-423.859h280.32z" />
<glyph unicode="&#xe907;" glyph-name="flight1" d="M10.045 232.472c-0.902 0.878-1.731 1.902-2.438 2.999-3.706 5.486-4.413 12.434-1.877 18.53l87.625 212.431-87.454 200.923c-2.633 6.095-2.048 13.166 1.56 18.725 3.657 5.583 9.85 8.948 16.53 8.948h86.942c5.73 0 11.24-2.706 14.994-6.9l100.279-116.712h204.678l-111.909 356.181c-2.072 6.046-1.073 12.727 2.633 17.92 3.657 5.169 9.679 8.241 16.043 8.241h116.248c6.534 0 12.629-3.218 16.335-8.631l247.662-378.929h200.631c54.053 0.049 101.205-47.104 101.205-101.205v-7.778c0-26.965-10.557-52.37-29.696-71.509-19.090-19.115-44.471-29.672-71.582-29.647h-198.51l-241.932-379.441c-3.657-5.51-9.801-8.777-16.457-8.777h-118.174c-6.363-0.049-12.239 2.999-15.945 8.094-3.706 5.071-4.754 11.678-2.877 17.676l102.985 352.768h-199.314l-94.525-112.664c-3.755-4.486-9.289-7.070-15.141-7.070h-94.622c-5.218 0.049-10.216 2.097-13.897 5.827v0z" />
<glyph unicode="&#xe908;" glyph-name="flight2" d="M364.788-49.347c-1.317 0-2.877 0.098-4.194 0.488-7.314 1.317-13.41 6.388-16.189 13.214l-99.328 238.738-229.425 90.21c-7.022 2.779-12.142 8.826-13.653 16.14s0.829 14.824 6.046 20.187l69.144 69.144c4.584 4.584 11.166 6.827 17.408 6.485l172.666-13.068 162.67 162.767-372.2 194.267c-6.485 3.121-11.020 9.216-12.239 16.335-1.17 7.119 1.219 14.336 6.242 19.358l92.453 92.453c5.218 5.169 12.581 7.412 19.846 6.144l498.347-104.497 159.598 159.646c42.959 43.057 118.004 43.057 160.963 0l6.193-6.193c21.504-21.455 33.353-49.981 33.353-80.408s-11.8-59.002-33.451-80.506l-157.794-157.891 109.324-494.202c1.512-7.266-0.878-14.775-6.095-20.090l-94.013-94.013c-5.071-5.071-12.093-7.314-19.066-6.193-7.070 1.024-13.166 5.51-16.482 11.703l-198.656 362.496-158.525-158.574 14.482-164.766c0.585-6.583-1.804-13.019-6.388-17.652l-75.24-75.288c-4.291-4.145-9.899-6.485-15.799-6.437v0z" />
<glyph unicode="&#xe909;" glyph-name="flight3" d="M13.113 233.842c-0.91 0.882-1.735 1.877-2.418 2.958-3.698 5.433-4.38 12.402-1.877 18.432l87.097 211.115-86.926 199.708c-2.617 6.087-2.020 13.084 1.564 18.631 3.641 5.547 9.785 8.903 16.412 8.903h86.443c5.66 0 11.179-2.702 14.876-6.855l99.669-115.996h203.435l-111.246 353.991c-2.048 6.002-1.052 12.629 2.645 17.806 3.641 5.148 9.643 8.192 15.986 8.192h115.513c6.514 0 12.544-3.186 16.213-8.562l246.187-376.633h199.396c53.732 0.057 100.608-46.82 100.608-100.58v-7.708c0-26.823-10.496-52.11-29.497-71.111s-44.231-29.44-71.14-29.44h-197.319l-240.441-377.116c-3.641-5.433-9.756-8.732-16.356-8.732h-117.476c-6.315-0.057-12.174 2.987-15.844 7.993-3.726 5.063-4.75 11.662-2.901 17.607l102.372 350.606h-198.116l-93.952-112.014c-3.755-4.437-9.216-6.997-15.047-6.997h-94.037c-5.205 0.085-10.183 2.162-13.824 5.803v0z" />
<glyph unicode="&#xe90a;" glyph-name="flight4" d="M5.86 223.659c-0.91 0.882-1.764 1.991-2.446 3.1-3.755 5.66-4.437 12.885-1.906 19.228l88.348 220.615-88.206 208.697c-2.674 6.343-2.048 13.653 1.593 19.456 3.698 5.774 9.956 9.273 16.668 9.273h87.694c5.774 0 11.321-2.788 15.104-7.168l101.148-121.23h206.364l-112.868 369.948c-2.076 6.286-1.081 13.227 2.674 18.631 3.698 5.376 9.785 8.59 16.156 8.59h117.22c6.571 0 12.715-3.328 16.469-8.96l249.714-393.557h202.325c54.528 0.028 102.087-48.981 102.087-105.131v-8.107c0-27.989-10.638-54.386-29.952-74.212-19.257-19.883-44.828-30.834-72.164-30.777h-200.135l-243.968-394.098c-3.698-5.717-9.899-9.102-16.583-9.102h-119.154c-6.4-0.057-12.345 3.1-16.071 8.391s-4.779 12.174-2.901 18.375l103.822 366.393h-201.045l-95.289-117.077c-3.812-4.665-9.358-7.339-15.275-7.339h-95.431c-5.262 0.057-10.297 2.219-13.995 6.059v0z" />
<glyph unicode="&#xe90b;" glyph-name="flight5" d="M10.045 232.472c-0.902 0.902-1.707 1.902-2.438 2.999-3.706 5.486-4.389 12.434-1.853 18.53l87.625 212.407-87.479 200.948c-2.609 6.095-2.048 13.141 1.56 18.725 3.657 5.583 9.85 8.948 16.53 8.948h86.942c5.754 0 11.24-2.706 14.994-6.9l100.279-116.712h204.678l-111.909 356.181c-2.097 6.046-1.097 12.727 2.609 17.92 3.657 5.169 9.704 8.241 16.043 8.241h116.248c6.534 0 12.629-3.218 16.335-8.631l247.686-378.929h200.631c54.053 0.049 101.23-47.128 101.23-101.23v-7.753c0-26.99-10.581-52.37-29.72-71.509-19.090-19.090-44.471-29.672-71.582-29.623h-198.485l-241.908-379.441c-3.657-5.534-9.801-8.802-16.482-8.802h-118.15c-6.388 0-12.239 3.048-15.945 8.094-3.706 5.096-4.754 11.703-2.901 17.725l103.010 352.768h-199.363l-94.525-112.713c-3.755-4.486-9.289-7.046-15.141-7.046h-94.622c-5.242 0.024-10.24 2.121-13.897 5.803v0z" />
<glyph unicode="&#xe90c;" glyph-name="HOME" d="M1016.243 453.043l-504.243 519.757-504.218-518.221c-9.856-10.138-10.419-27.213-1.203-38.042 9.216-10.854 24.704-11.469 34.56-1.306l470.835 483.866 470.886-485.35c4.736-4.864 10.726-7.27 16.691-7.27 6.528 0 13.056 2.867 17.843 8.525 9.242 10.854 8.704 27.904-1.152 38.042zM862.413 442.368c-13.491 0-24.448-12.058-24.448-26.931v-412.826h-195.584v287.206h-260.762v-287.206h-195.584v412.851c0 14.874-10.931 26.931-24.448 26.931s-24.448-12.058-24.448-26.931v-466.662h293.35v287.181h162.97v-287.181h293.376v466.662c0.026 14.874-10.957 26.906-24.422 26.906zM691.251 828.262h146.688v-143.565c0-14.874 10.957-26.931 24.448-26.931 13.466 0 24.448 12.058 24.448 26.931v197.402h-195.61c-13.466 0-24.422-12.058-24.422-26.931s10.982-26.906 24.448-26.906z" />
<glyph unicode="&#xe90d;" d="M967.72 514.329c0-251.723-455.72-554.125-455.72-554.125s-455.72 302.401-455.72 554.125 204.037 455.74 455.72 455.74 455.72-204.017 455.72-455.74z" />
<glyph unicode="&#xe90e;" d="M706.962 532.38c0-112.831-91.467-204.298-204.298-204.298s-204.298 91.467-204.298 204.298c0 112.831 91.467 204.298 204.298 204.298s204.298-91.467 204.298-204.298z" />
<glyph unicode="&#xe90f;" glyph-name="login" d="M0 460.8c0-282.854 229.12-512 512-512s512 229.146 512 512c0 282.88-229.12 512-512 512s-512-229.12-512-512v0zM48.768 460.8c0 239.232 225.613 463.232 463.232 463.232 259.2 0 463.258-235.853 463.258-463.232 0-105.574-36.992-207.949-87.782-281.574-32.128 124.237-134.63 225.203-269.875 263.808 64.461 36.736 113.818 109.107 113.818 188.442 0 128.358-101.683 219.418-219.418 219.418-124.595 0-219.418-101.683-219.418-219.418 0-79.36 49.408-151.731 113.818-188.442-135.245-38.605-244.89-138.752-269.875-263.808-50.918 72.986-87.757 176-87.757 281.574v0zM853.35 143.846c-78.003-83.174-236.442-144.666-341.35-146.278-128.282-1.946-278.477 78.515-341.325 146.278l2.56-3.021c21.12 137.114 164.685 271.232 338.765 271.232s313.6-139.494 338.739-271.232h4.506l-1.894 3.021zM341.325 628.429c0 94.285 76.39 173.696 170.675 173.696 94.31 0 170.675-79.437 170.675-173.696 0-94.31-76.365-167.629-170.675-167.629-94.285 0-170.675 73.318-170.675 167.629v0z" />
<glyph unicode="&#xe910;" glyph-name="login2" d="M0 460.8c0-282.854 229.12-512 512-512 282.906 0 512 229.146 512 512 0 282.88-229.094 512-512 512-282.88 0-512-229.12-512-512v0zM48.768 460.8c0 239.232 225.613 463.232 463.232 463.232 259.2 0 463.258-235.853 463.258-463.232 0-105.574-36.992-207.949-87.757-281.574-32.154 124.237-134.656 225.203-269.901 263.808 64.461 36.736 113.843 109.107 113.843 188.442 0 128.358-101.709 219.418-219.443 219.418-124.595 0-219.418-101.683-219.418-219.418 0-79.36 49.408-151.731 113.818-188.442-135.245-38.605-244.89-138.752-269.875-263.808-50.918 72.986-87.757 176-87.757 281.574v0zM853.35 143.846c-78.003-83.174-236.442-144.666-341.35-146.278-128.282-1.946-278.477 78.515-341.325 146.278l2.56-3.021c21.12 137.114 164.685 271.232 338.765 271.232 174.106 0 313.6-139.494 338.739-271.232h4.506l-1.894 3.021zM341.325 628.429c0 94.285 76.39 173.696 170.675 173.696 94.31 0 170.701-79.437 170.701-173.696 0-94.31-76.39-167.629-170.701-167.629-94.285 0-170.675 73.318-170.675 167.629v0z" />
<glyph unicode="&#xe911;" glyph-name="setting" d="M663.371-16.023v0c-18.372 0-36.232 7.59-47.767 20.299-15.691 17.227-65.506 62.072-106.255 62.072-40.508 0-91.016-45.056-105.562-60.868-11.505-12.469-29.244-19.938-47.405-19.938-8.674 0-16.866 1.656-24.335 4.939l-1.295 0.482-123.874 69.301-1.235 0.873c-22.558 15.752-31.112 46.652-19.968 71.831 0.12 0.181 11.475 26.353 11.475 50.176 0 72.403-58.94 131.343-131.313 131.343h-4.427c-0.271 0-0.542-0.060-0.783-0.060-20.751 0-37.647 18.462-43.038 47.014-0.452 2.289-10.571 56.35-10.571 98.936 0 42.616 10.12 96.708 10.571 98.997 5.481 28.883 22.739 47.435 43.821 46.953h4.397c72.373 0 131.313 58.88 131.313 131.283 0 23.853-11.354 50.025-11.475 50.266-11.113 25.148-2.53 56.019 20.119 71.74l1.295 0.904 130.741 71.8 1.385 0.572c7.349 3.132 15.42 4.728 23.974 4.728 18.161 0 35.9-7.288 47.526-19.546 15.48-16.203 64.331-58.338 103.966-58.338 39.243 0 87.823 41.321 103.213 57.224 11.565 11.987 29.214 19.185 47.164 19.185 8.734 0 16.926-1.656 24.425-4.909l1.325-0.602 126.283-70.144 1.205-0.873c22.648-15.752 31.202-46.652 20.058-71.831-0.090-0.181-11.475-26.353-11.475-50.206 0-72.403 58.94-131.283 131.313-131.283h4.397c21.082 0.482 38.37-18.040 43.851-46.953 0.452-2.289 10.571-56.38 10.571-98.997 0-42.586-10.12-96.648-10.601-98.936-5.451-28.943-22.739-47.345-43.821-46.953h-4.397c-72.373 0-131.313-58.94-131.313-131.343 0-23.823 11.354-49.995 11.475-50.236 11.144-25.118 2.56-55.989-20.088-71.77l-1.265-0.873-128.392-70.927-1.355-0.602c-7.349-3.132-15.33-4.728-23.853-4.728v0zM659.486 44.454c0.602-0.361 2.199-0.994 3.885-0.994 0.060 0 0.12 0 0.211 0l119.928 66.289c-2.891 6.716-16.143 39.364-16.143 73.427 0 101.888 80.233 185.344 180.826 190.524 1.476 8.011 9.306 53.007 9.306 86.709 0 33.732-7.831 78.667-9.306 86.679-100.593 5.21-180.826 88.696-180.826 190.524 0 34.093 13.282 66.801 16.173 73.457l-118.031 65.566c-0.12 0-0.301 0-0.512 0-1.958 0-3.885-0.723-4.518-1.144-1.958-2.048-19.064-19.396-43.61-36.683-36.382-25.57-70.807-38.551-102.28-38.551-31.744 0-66.44 13.222-103.032 39.334-24.727 17.619-41.924 35.328-43.912 37.376-0.632 0.422-2.5 1.175-4.518 1.175-0.211 0-0.331 0-0.422 0l-122.278-67.132c2.952-6.837 16.203-39.424 16.203-73.427 0-101.828-80.233-185.314-180.826-190.524-1.476-8.011-9.306-52.947-9.306-86.679 0-33.702 7.831-78.637 9.306-86.648 100.593-5.24 180.826-88.696 180.826-190.584 0-34.184-13.372-66.891-16.203-73.457l115.712-64.693c0.060 0 0.181 0 0.271 0 1.687 0 3.253 0.602 3.855 0.994 2.168 2.289 19.456 20.6 44.333 38.822 37.075 27.166 72.373 40.99 104.779 40.99 32.708 0 68.277-14.065 105.623-41.773 24.968-18.583 42.315-37.225 44.484-39.575v0zM509.801 286.148c-96.437 0-174.893 78.456-174.893 174.893s78.426 174.863 174.893 174.863c96.407 0 174.893-78.426 174.893-174.863s-78.487-174.893-174.893-174.893v0zM509.801 576.422c-63.669 0-115.381-51.772-115.381-115.381s51.712-115.381 115.381-115.381c63.608 0 115.411 51.772 115.411 115.381 0 63.639-51.802 115.381-115.411 115.381v0z" />
<glyph unicode="&#xe912;" glyph-name="password" d="M721.203 657.647c-22.562 0-40.858 18.295-40.858 40.892 0 92.228-75.059 167.253-167.287 167.253-92.262 0-167.322-75.025-167.322-167.253 0-22.596-18.295-40.892-40.858-40.892s-40.926 18.295-40.926 40.892c0 137.284 111.718 249.003 249.071 249.003s249.037-111.718 249.037-249.003c0-22.596-18.295-40.892-40.858-40.892zM136.533 597.333h750.933v-648.533h-750.933v648.533z" />
<glyph unicode="&#xe913;" glyph-name="date" d="M711.566 311.125h133.063v-133.063h-133.063v133.063zM794.709 909.796c-27.563 0-49.892-22.13-49.892-49.863v-99.868c0-27.534 22.13-49.835 49.892-49.835 27.563 0 49.892 22.101 49.892 49.835v99.868c0 27.534-22.158 49.863-49.892 49.863zM229.319 909.796c-27.591 0-49.892-22.13-49.892-49.863v-99.868c0-27.534 22.13-49.835 49.892-49.835 27.534 0 49.863 22.101 49.863 49.835v99.868c-0.028 27.534-22.158 49.863-49.863 49.863zM977.721 776.732h-99.868v-49.835c0-27.62-22.3-49.948-49.892-49.948h-66.503c-27.449 0-49.892 22.386-49.892 49.948v49.835h-399.132v-49.835c0-27.62-22.329-49.948-49.892-49.948h-66.503c-27.477 0-49.892 22.386-49.892 49.948v49.835h-99.84c-18.347 0-33.195-14.592-33.195-33.337v-665.088c0-36.75 29.867-66.532 66.247-66.532h865.308c36.551 0 66.219 29.952 66.219 66.532v665.116c0 18.404-14.876 33.308-33.166 33.308zM911.104 178.261c0-36.864-29.838-66.731-66.674-66.731h-664.86c-36.864 0-66.702 29.895-66.702 66.702v365.454c0 18.546 14.905 33.508 33.28 33.508h731.676c18.375 0 33.28-14.99 33.28-33.508v-365.426z" />
<glyph unicode="&#xe914;" glyph-name="point" d="M1024 460.8c0-282.77-229.23-512-512-512s-512 229.23-512 512c0 282.77 229.23 512 512 512s512-229.23 512-512z" />
<glyph unicode="&#xe915;" glyph-name="setting2" d="M512 348.416c-171.725 0-312.218 140.467-312.218 312.166 0 171.75 140.493 312.243 312.218 312.243 171.699 0 312.192-140.493 312.192-312.218 0-171.699-140.493-312.192-312.192-312.192zM512 910.387c-137.395 0-249.805-112.435-249.805-249.805s112.41-249.754 249.805-249.754c137.344 0 249.754 112.384 249.754 249.754s-112.41 249.805-249.754 249.805zM939.699-51.226c-18.714 0-31.206 12.467-31.206 31.232 0 212.301-165.504 365.312-396.493 365.312-231.066 0-396.518-153.011-396.518-365.312 0-18.739-12.493-31.232-31.232-31.232s-31.206 12.467-31.206 31.232c0 246.656 193.562 427.725 458.957 427.725 265.344 0 458.957-181.069 458.957-427.725 0-18.765-12.493-31.232-31.258-31.232z" />
<glyph unicode="&#xe916;" glyph-name="setting3" d="M647.437 34.169v0c-16.438 0-32.418 6.791-42.739 18.163-14.040 15.414-58.611 55.539-95.070 55.539-36.244 0-81.435-40.313-94.451-54.461-10.294-11.156-26.166-17.839-42.415-17.839-7.761 0-15.091 1.482-21.773 4.419l-1.159 0.431-110.835 62.006-1.105 0.781c-20.184 14.093-27.837 41.741-17.866 64.269 0.108 0.162 10.267 23.579 10.267 44.894 0 64.781-52.736 117.491-117.491 117.491h-3.961c-0.243 0-0.485-0.027-0.701-0.027-18.567 0-33.684 16.492-38.508 42.038-0.404 2.048-9.459 50.419-9.459 88.549 0 38.104 9.054 86.528 9.459 88.549 4.904 25.843 20.345 42.442 39.208 42.011h3.934c64.755 0 117.491 52.682 117.491 117.464 0 21.369-10.159 44.76-10.267 45.002-9.944 22.474-2.264 50.122 18.001 64.189l1.159 0.781 116.979 64.269 1.24 0.512c6.575 2.803 13.797 4.231 21.45 4.231 16.249 0 32.121-6.521 42.523-17.462 13.851-14.498 57.56-52.224 93.022-52.224 35.112 0 78.579 36.972 92.349 51.2 10.348 10.725 26.139 17.165 42.2 17.165 7.815 0 15.144-1.509 21.854-4.392l1.186-0.539 112.99-62.76 1.078-0.755c20.264-14.093 27.917-41.768 17.947-64.269-0.081-0.162-10.267-23.579-10.267-44.948 0-64.781 52.736-117.464 117.491-117.464h3.934c18.863 0.431 34.331-16.141 39.235-42.011 0.404-2.021 9.459-50.445 9.459-88.549 0-38.131-9.054-86.501-9.485-88.549-4.877-25.869-20.345-42.361-39.208-42.011h-3.934c-64.755 0-117.491-52.709-117.491-117.491 0-21.315 10.159-44.733 10.267-44.948 9.971-22.474 2.291-50.095-17.974-64.216l-1.132-0.781-114.877-63.461-1.213-0.539c-6.575-2.829-13.716-4.258-21.342-4.258v0zM643.961 88.28c0.539-0.323 1.967-0.889 3.476-0.889 0.054 0 0.108 0 0.189 0l107.304 59.311c-2.587 6.009-14.444 35.22-14.444 65.698 0 91.163 71.788 165.807 161.792 170.469 1.32 7.141 8.327 47.4 8.327 77.581 0 30.154-7.006 70.36-8.327 77.555-90.004 4.689-161.792 79.36-161.792 170.469 0 30.531 11.884 59.796 14.471 65.725l-105.607 58.664c-0.108 0.027-0.269 0.027-0.458 0.027-1.752 0-3.476-0.647-4.042-1.024-1.752-1.832-17.058-17.354-39.020-32.822-32.552-22.905-63.353-34.493-91.513-34.493-28.403 0-59.446 11.83-92.187 35.193-22.124 15.764-37.511 31.609-39.289 33.442-0.566 0.377-2.237 1.051-4.042 1.051-0.189 0-0.296-0.027-0.377-0.027l-109.406-60.066c2.641-6.117 14.498-35.274 14.498-65.698 0-91.109-71.788-165.807-161.792-170.469-1.32-7.168-8.327-47.373-8.327-77.555s7.006-70.387 8.327-77.555c90.004-4.689 161.792-79.333 161.792-170.496 0-30.585-11.965-59.85-14.498-65.725l103.532-57.883c0.054 0 0.162 0 0.243 0 1.509 0 2.91 0.539 3.449 0.889 1.94 2.048 17.408 18.432 39.667 34.735 33.172 24.307 64.755 36.675 93.75 36.675 29.265 0 61.090-12.584 94.504-37.376 22.339-16.627 37.861-33.307 39.801-35.409v0zM510.033 304.532c-86.285 0-156.483 70.198-156.483 156.483s70.171 156.483 156.483 156.483c86.259 0 156.483-70.171 156.483-156.483-0.027-86.259-70.225-156.483-156.483-156.483v0zM510.033 564.251c-56.967 0-103.235-46.323-103.235-103.235s46.269-103.235 103.235-103.235c56.913 0 103.262 46.323 103.262 103.235s-46.349 103.235-103.262 103.235v0z" />
<glyph unicode="&#xe917;" d="M512-43.979c-278.37 0-504.779 226.462-504.779 504.779s226.409 504.779 504.779 504.779 504.779-226.462 504.779-504.779-226.409-504.779-504.779-504.779zM512 852.493c-216.011 0-391.693-175.734-391.693-391.693s175.682-391.693 391.693-391.693 391.693 175.734 391.693 391.693-175.682 391.693-391.693 391.693z" />
<glyph unicode="&#xe918;" d="M773.514 460.8c0-144.43-117.084-261.514-261.514-261.514s-261.514 117.084-261.514 261.514c0 144.43 117.084 261.514 261.514 261.514s261.514-117.084 261.514-261.514z" />
<glyph unicode="&#xe919;" glyph-name="user" d="M744.141 730.624c0-127.209-103.933-230.332-232.141-230.332s-232.141 103.123-232.141 230.332c0 127.209 103.933 230.332 232.141 230.332s232.141-103.123 232.141-230.332zM870.4-46.114c-24.474 0-44.339 19.695-44.339 43.964 0 192.444-140.868 348.979-314.061 348.979s-314.061-156.535-314.061-348.979c0-24.269-19.866-43.964-44.339-43.964s-44.339 19.695-44.339 43.964c0 240.913 180.668 436.907 402.739 436.907s402.739-195.994 402.739-436.907c0-24.235-19.866-43.964-44.339-43.964z" />
<glyph unicode="&#xe91a;" glyph-name="单号-(1)" d="M666.953 907.56h-464.297c-61.024 0-99.756-36.59-99.756-93.551v-695.39c0-56.926 49.474-103.128 110.514-103.128h593.207c61.025 0 90.549 46.673 90.549 103.601v546.396l-230.217 242.071zM645.203 836.445l172.72-181.19h-138.186c-30.52 0-34.534 16.303-34.534 44.767v136.423zM838.336 108.859c0-28.463-4.013-34.534-34.534-34.534h-607.535c-30.52 0-34.534 6.070-34.534 34.534 0 0 0 659.027 0 704.996 0 28.497 4.013 34.534 34.534 34.534h390.102v-182.901c0-56.926 8.043-69.067 69.067-69.067h182.9c0-207.328 0-487.561 0-487.561zM679.8 285.618h-359.529c-15.597 0-20.403-5.462-20.403-22.998v-14.815c0-17.536 4.805-23.066 20.403-23.066h359.53c15.596 0 20.403 5.53 20.403 23.066v14.815c-0.001 17.536-4.806 22.998-20.404 22.998zM299.868 435.287v-14.812c0-17.538 4.637-23.068 19.729-23.068h360.876c15.093 0 19.729 5.53 19.729 23.068v14.812c0 17.536-4.637 23.001-19.729 23.001h-360.877c-10.775 0-19.728-5.464-19.728-23.001zM320.018 570.075h177.134c15.411 0 20.149 5.53 20.149 23.067v14.813c0 17.536-4.739 23-20.149 23h-177.134c-15.413 0-20.151-5.463-20.151-23v-14.813c0.001-17.537 4.739-23.067 20.151-23.067z" />
</font>
</defs>
</svg>
